# xmcd
#
# Track frame offsets:
# 150
# 11822
# 23480
# 34807
# 46060
# 57357
# 69270
# 79040
# 91727
# 102065
# 113090
# 124445
# 135620
# 149507
# 160355
# 171915
# 182342
# 194945
# 206070
# 214980
# 229402
#
# Disc length: 3197 seconds
#
#
# Revision: 0
# Processed by: cddbd v1.4PL0 Copyright (c) Steve Scherf et al.
# Submitted via: FreeRIP 2.00 
#
DISCID=2d0c7b15
DTITLE=Patsy Cline - Heartbreakers
DYEAR=1993
DGENRE=Country
TTITLE0=I've loved and lost again
TTITLE1=Walkin' after midnight
TTITLE2=Just out of reach
TTITLE3=Hungry for love
TTITLE4=Cry not for me
TTITLE5=If i could only stay asleep
TTITLE6=I'mblue again
TTITLE7=Yes, i understand
TTITLE8=How can i face tomorrow
TTITLE9=There she goes
TTITLE10=Crazy dreams
TTITLE11=Hidin' out
TTITLE12=A church,a courtroom and then goodby
TTITLE13=I cried all the way to the altar
TTITLE14=The heart you break may be your own
TTITLE15=Pick me up on the way down
TTITLE16=Fingerprints
TTITLE17=A stranger in my arms
TTITLE18=Try again
TTITLE19=Then you'll know
TTITLE20=Lovesick blues
EXTD=
EXTT0=
EXTT1=
EXTT2=
EXTT3=
EXTT4=
EXTT5=
EXTT6=
EXTT7=
EXTT8=
EXTT9=
EXTT10=
EXTT11=
EXTT12=
EXTT13=
EXTT14=
EXTT15=
EXTT16=
EXTT17=
EXTT18=
EXTT19=
EXTT20=
PLAYORDER=
